<mxfile host="app.diagrams.net" modified="2021-06-06T09:00:24.393Z" agent="5.0 (Windows NT 6.1; Win64; x64) AppleWebKit/537.36 (KHTML, like Gecko) Chrome/91.0.4472.77 Safari/537.36" etag="ZUyNdWyw7uzlmbikGCA_" version="14.7.6" type="github">
  <diagram id="xo_wq_0t73jZyJWyDYhT" name="Page-1">
    <mxGraphModel dx="2187" dy="2003" grid="1" gridSize="10" guides="1" tooltips="1" connect="1" arrows="1" fold="1" page="1" pageScale="1" pageWidth="827" pageHeight="1169" math="0" shadow="0">
      <root>
        <mxCell id="0" />
        <mxCell id="1" parent="0" />
        <mxCell id="l1cyiX5RxD2Wi46WAahM-26" style="edgeStyle=orthogonalEdgeStyle;rounded=0;orthogonalLoop=1;jettySize=auto;html=1;exitX=0.5;exitY=0;exitDx=0;exitDy=0;entryX=0.5;entryY=1;entryDx=0;entryDy=0;dashed=1;" edge="1" parent="1" source="l1cyiX5RxD2Wi46WAahM-1" target="l1cyiX5RxD2Wi46WAahM-24">
          <mxGeometry relative="1" as="geometry" />
        </mxCell>
        <mxCell id="l1cyiX5RxD2Wi46WAahM-1" value="&amp;lt;&amp;lt;Interface&amp;gt;&amp;gt;&lt;br&gt;Field" style="shape=ext;double=1;rounded=0;whiteSpace=wrap;html=1;" vertex="1" parent="1">
          <mxGeometry x="350" y="30" width="100" height="80" as="geometry" />
        </mxCell>
        <mxCell id="l1cyiX5RxD2Wi46WAahM-23" style="edgeStyle=orthogonalEdgeStyle;rounded=0;orthogonalLoop=1;jettySize=auto;html=1;exitX=0.75;exitY=0;exitDx=0;exitDy=0;entryX=0.25;entryY=1;entryDx=0;entryDy=0;dashed=1;" edge="1" parent="1" source="l1cyiX5RxD2Wi46WAahM-3" target="l1cyiX5RxD2Wi46WAahM-1">
          <mxGeometry relative="1" as="geometry" />
        </mxCell>
        <mxCell id="l1cyiX5RxD2Wi46WAahM-3" value="&amp;lt;&amp;lt;Abstract&amp;gt;&amp;gt;&lt;br&gt;Event" style="shape=ext;double=1;rounded=0;whiteSpace=wrap;html=1;" vertex="1" parent="1">
          <mxGeometry x="120" y="170" width="120" height="80" as="geometry" />
        </mxCell>
        <mxCell id="l1cyiX5RxD2Wi46WAahM-6" style="edgeStyle=orthogonalEdgeStyle;rounded=0;orthogonalLoop=1;jettySize=auto;html=1;exitX=0.5;exitY=0;exitDx=0;exitDy=0;entryX=0.89;entryY=0.988;entryDx=0;entryDy=0;entryPerimeter=0;dashed=1;" edge="1" parent="1" source="l1cyiX5RxD2Wi46WAahM-4" target="l1cyiX5RxD2Wi46WAahM-1">
          <mxGeometry relative="1" as="geometry" />
        </mxCell>
        <mxCell id="l1cyiX5RxD2Wi46WAahM-4" value="&amp;lt;&amp;lt;Abstract&amp;gt;&amp;gt;&lt;br&gt;Property&lt;br&gt;" style="shape=ext;double=1;rounded=0;whiteSpace=wrap;html=1;" vertex="1" parent="1">
          <mxGeometry x="640" y="160" width="120" height="80" as="geometry" />
        </mxCell>
        <mxCell id="l1cyiX5RxD2Wi46WAahM-10" style="edgeStyle=orthogonalEdgeStyle;rounded=0;orthogonalLoop=1;jettySize=auto;html=1;exitX=0.5;exitY=0;exitDx=0;exitDy=0;entryX=0;entryY=0.5;entryDx=0;entryDy=0;" edge="1" parent="1" source="l1cyiX5RxD2Wi46WAahM-7" target="l1cyiX5RxD2Wi46WAahM-3">
          <mxGeometry relative="1" as="geometry" />
        </mxCell>
        <mxCell id="l1cyiX5RxD2Wi46WAahM-7" value="Chance" style="shape=ext;double=1;rounded=0;whiteSpace=wrap;html=1;" vertex="1" parent="1">
          <mxGeometry y="290" width="120" height="80" as="geometry" />
        </mxCell>
        <mxCell id="l1cyiX5RxD2Wi46WAahM-11" style="edgeStyle=orthogonalEdgeStyle;rounded=0;orthogonalLoop=1;jettySize=auto;html=1;exitX=0.5;exitY=0;exitDx=0;exitDy=0;" edge="1" parent="1" source="l1cyiX5RxD2Wi46WAahM-8" target="l1cyiX5RxD2Wi46WAahM-3">
          <mxGeometry relative="1" as="geometry" />
        </mxCell>
        <mxCell id="l1cyiX5RxD2Wi46WAahM-8" value="Treasure" style="shape=ext;double=1;rounded=0;whiteSpace=wrap;html=1;" vertex="1" parent="1">
          <mxGeometry x="140" y="290" width="120" height="80" as="geometry" />
        </mxCell>
        <mxCell id="l1cyiX5RxD2Wi46WAahM-12" style="edgeStyle=orthogonalEdgeStyle;rounded=0;orthogonalLoop=1;jettySize=auto;html=1;exitX=0.5;exitY=0;exitDx=0;exitDy=0;entryX=1;entryY=0.5;entryDx=0;entryDy=0;" edge="1" parent="1" source="l1cyiX5RxD2Wi46WAahM-9" target="l1cyiX5RxD2Wi46WAahM-3">
          <mxGeometry relative="1" as="geometry" />
        </mxCell>
        <mxCell id="l1cyiX5RxD2Wi46WAahM-9" value="AngularEvent&amp;nbsp;" style="shape=ext;double=1;rounded=0;whiteSpace=wrap;html=1;" vertex="1" parent="1">
          <mxGeometry x="280" y="290" width="120" height="80" as="geometry" />
        </mxCell>
        <mxCell id="l1cyiX5RxD2Wi46WAahM-19" style="edgeStyle=orthogonalEdgeStyle;rounded=0;orthogonalLoop=1;jettySize=auto;html=1;exitX=0.5;exitY=0;exitDx=0;exitDy=0;entryX=0;entryY=1;entryDx=0;entryDy=0;" edge="1" parent="1" source="l1cyiX5RxD2Wi46WAahM-13" target="l1cyiX5RxD2Wi46WAahM-4">
          <mxGeometry relative="1" as="geometry" />
        </mxCell>
        <mxCell id="l1cyiX5RxD2Wi46WAahM-13" value="GreenProperty" style="shape=ext;double=1;rounded=0;whiteSpace=wrap;html=1;" vertex="1" parent="1">
          <mxGeometry x="480" y="280" width="120" height="80" as="geometry" />
        </mxCell>
        <mxCell id="l1cyiX5RxD2Wi46WAahM-20" style="edgeStyle=orthogonalEdgeStyle;rounded=0;orthogonalLoop=1;jettySize=auto;html=1;exitX=0.5;exitY=0;exitDx=0;exitDy=0;entryX=0.45;entryY=1.038;entryDx=0;entryDy=0;entryPerimeter=0;" edge="1" parent="1" source="l1cyiX5RxD2Wi46WAahM-14" target="l1cyiX5RxD2Wi46WAahM-4">
          <mxGeometry relative="1" as="geometry" />
        </mxCell>
        <mxCell id="l1cyiX5RxD2Wi46WAahM-14" value="RedProperty" style="shape=ext;double=1;rounded=0;whiteSpace=wrap;html=1;" vertex="1" parent="1">
          <mxGeometry x="610" y="280" width="120" height="80" as="geometry" />
        </mxCell>
        <mxCell id="l1cyiX5RxD2Wi46WAahM-21" style="edgeStyle=orthogonalEdgeStyle;rounded=0;orthogonalLoop=1;jettySize=auto;html=1;exitX=0.25;exitY=0;exitDx=0;exitDy=0;entryX=0.9;entryY=1.025;entryDx=0;entryDy=0;entryPerimeter=0;" edge="1" parent="1" source="l1cyiX5RxD2Wi46WAahM-15" target="l1cyiX5RxD2Wi46WAahM-4">
          <mxGeometry relative="1" as="geometry" />
        </mxCell>
        <mxCell id="l1cyiX5RxD2Wi46WAahM-15" value="YellowProperty" style="shape=ext;double=1;rounded=0;whiteSpace=wrap;html=1;" vertex="1" parent="1">
          <mxGeometry x="750" y="280" width="120" height="80" as="geometry" />
        </mxCell>
        <mxCell id="l1cyiX5RxD2Wi46WAahM-22" style="edgeStyle=orthogonalEdgeStyle;rounded=0;orthogonalLoop=1;jettySize=auto;html=1;exitX=0;exitY=0.5;exitDx=0;exitDy=0;entryX=1;entryY=0.5;entryDx=0;entryDy=0;" edge="1" parent="1" source="l1cyiX5RxD2Wi46WAahM-16" target="l1cyiX5RxD2Wi46WAahM-4">
          <mxGeometry relative="1" as="geometry" />
        </mxCell>
        <mxCell id="l1cyiX5RxD2Wi46WAahM-16" value="LightGreenProperty" style="shape=ext;double=1;rounded=0;whiteSpace=wrap;html=1;" vertex="1" parent="1">
          <mxGeometry x="820" y="160" width="120" height="80" as="geometry" />
        </mxCell>
        <mxCell id="l1cyiX5RxD2Wi46WAahM-18" style="edgeStyle=orthogonalEdgeStyle;rounded=0;orthogonalLoop=1;jettySize=auto;html=1;exitX=1;exitY=0.5;exitDx=0;exitDy=0;" edge="1" parent="1" source="l1cyiX5RxD2Wi46WAahM-17" target="l1cyiX5RxD2Wi46WAahM-4">
          <mxGeometry relative="1" as="geometry" />
        </mxCell>
        <mxCell id="l1cyiX5RxD2Wi46WAahM-17" value="LightYellowProperty" style="shape=ext;double=1;rounded=0;whiteSpace=wrap;html=1;" vertex="1" parent="1">
          <mxGeometry x="470" y="160" width="120" height="80" as="geometry" />
        </mxCell>
        <mxCell id="l1cyiX5RxD2Wi46WAahM-28" style="edgeStyle=orthogonalEdgeStyle;rounded=0;orthogonalLoop=1;jettySize=auto;html=1;exitX=0.5;exitY=0;exitDx=0;exitDy=0;entryX=0.5;entryY=1;entryDx=0;entryDy=0;" edge="1" parent="1" source="l1cyiX5RxD2Wi46WAahM-24" target="l1cyiX5RxD2Wi46WAahM-27">
          <mxGeometry relative="1" as="geometry" />
        </mxCell>
        <mxCell id="l1cyiX5RxD2Wi46WAahM-24" value="FieldsStorage" style="shape=ext;double=1;rounded=0;whiteSpace=wrap;html=1;" vertex="1" parent="1">
          <mxGeometry x="340" y="-160" width="120" height="80" as="geometry" />
        </mxCell>
        <mxCell id="l1cyiX5RxD2Wi46WAahM-27" value="GameRunner" style="shape=ext;double=1;rounded=0;whiteSpace=wrap;html=1;" vertex="1" parent="1">
          <mxGeometry x="340" y="-320" width="120" height="80" as="geometry" />
        </mxCell>
        <mxCell id="l1cyiX5RxD2Wi46WAahM-44" style="edgeStyle=orthogonalEdgeStyle;rounded=0;orthogonalLoop=1;jettySize=auto;html=1;exitX=0.5;exitY=1;exitDx=0;exitDy=0;entryX=0.5;entryY=0;entryDx=0;entryDy=0;" edge="1" parent="1" source="l1cyiX5RxD2Wi46WAahM-29" target="l1cyiX5RxD2Wi46WAahM-39">
          <mxGeometry relative="1" as="geometry" />
        </mxCell>
        <mxCell id="l1cyiX5RxD2Wi46WAahM-29" value="&amp;lt;&amp;lt;Interface&amp;gt;&amp;gt;&lt;br&gt;Input" style="shape=ext;double=1;rounded=0;whiteSpace=wrap;html=1;" vertex="1" parent="1">
          <mxGeometry x="-80" y="-500" width="120" height="80" as="geometry" />
        </mxCell>
        <mxCell id="l1cyiX5RxD2Wi46WAahM-40" style="edgeStyle=orthogonalEdgeStyle;rounded=0;orthogonalLoop=1;jettySize=auto;html=1;exitX=0.5;exitY=1;exitDx=0;exitDy=0;entryX=0.5;entryY=0;entryDx=0;entryDy=0;dashed=1;" edge="1" parent="1" source="l1cyiX5RxD2Wi46WAahM-37" target="l1cyiX5RxD2Wi46WAahM-29">
          <mxGeometry relative="1" as="geometry" />
        </mxCell>
        <mxCell id="l1cyiX5RxD2Wi46WAahM-37" value="Scanner" style="shape=ext;double=1;rounded=0;whiteSpace=wrap;html=1;" vertex="1" parent="1">
          <mxGeometry x="-80" y="-710" width="120" height="80" as="geometry" />
        </mxCell>
        <mxCell id="l1cyiX5RxD2Wi46WAahM-43" style="edgeStyle=orthogonalEdgeStyle;rounded=0;orthogonalLoop=1;jettySize=auto;html=1;exitX=1;exitY=0.5;exitDx=0;exitDy=0;entryX=0;entryY=0.5;entryDx=0;entryDy=0;" edge="1" parent="1" source="l1cyiX5RxD2Wi46WAahM-39" target="l1cyiX5RxD2Wi46WAahM-42">
          <mxGeometry relative="1" as="geometry" />
        </mxCell>
        <mxCell id="l1cyiX5RxD2Wi46WAahM-39" value="Player" style="shape=ext;double=1;rounded=0;whiteSpace=wrap;html=1;" vertex="1" parent="1">
          <mxGeometry x="-80" y="-330" width="120" height="80" as="geometry" />
        </mxCell>
        <mxCell id="l1cyiX5RxD2Wi46WAahM-48" style="edgeStyle=orthogonalEdgeStyle;rounded=0;orthogonalLoop=1;jettySize=auto;html=1;exitX=1;exitY=0.5;exitDx=0;exitDy=0;entryX=0;entryY=0.375;entryDx=0;entryDy=0;entryPerimeter=0;" edge="1" parent="1" source="l1cyiX5RxD2Wi46WAahM-42" target="l1cyiX5RxD2Wi46WAahM-27">
          <mxGeometry relative="1" as="geometry" />
        </mxCell>
        <mxCell id="l1cyiX5RxD2Wi46WAahM-42" value="PlayerStorage" style="shape=ext;double=1;rounded=0;whiteSpace=wrap;html=1;" vertex="1" parent="1">
          <mxGeometry x="130" y="-330" width="120" height="80" as="geometry" />
        </mxCell>
        <mxCell id="l1cyiX5RxD2Wi46WAahM-46" style="edgeStyle=orthogonalEdgeStyle;rounded=0;orthogonalLoop=1;jettySize=auto;html=1;exitX=0.5;exitY=1;exitDx=0;exitDy=0;entryX=0;entryY=0.25;entryDx=0;entryDy=0;dashed=1;" edge="1" parent="1" source="l1cyiX5RxD2Wi46WAahM-45" target="l1cyiX5RxD2Wi46WAahM-29">
          <mxGeometry relative="1" as="geometry" />
        </mxCell>
        <mxCell id="l1cyiX5RxD2Wi46WAahM-45" value="Dice" style="shape=ext;double=1;rounded=0;whiteSpace=wrap;html=1;" vertex="1" parent="1">
          <mxGeometry x="-240" y="-710" width="120" height="80" as="geometry" />
        </mxCell>
      </root>
    </mxGraphModel>
  </diagram>
</mxfile>
